# xmcd
#
# Track frame offsets: 
#        150
#        15620
#        33132
#        51007
#        70075
#        88887
#        102875
#        119135
#        135742
#        156457
#
# Disc length: 2356 seconds
#
# Revision: 3
# Processed by: cddbd v1.5.1PL2 Copyright (c) Steve Scherf et al.
# Submitted via: ExactAudioCopy v0.95a5
#
DISCID=8609320a
DTITLE=David Lee Murphy - Gettin' Out The Good Stuff
DYEAR=1996
DGENRE=Country
TTITLE0=Every Time I Get Around You
TTITLE1=The Road You Leave Behind
TTITLE2=She's Really Something To See
TTITLE3=Genuine Rednecks
TTITLE4=100 Years Too Late
TTITLE5=Born That Way
TTITLE6=Breakfast In Birmingham
TTITLE7=Gettin' Out The Good Stuff
TTITLE8=I've Been a Rebel (And It Don't Pay)
TTITLE9=Pirates Cove
EXTD=
EXTT0=
EXTT1=
EXTT2=
EXTT3=
EXTT4=
EXTT5=
EXTT6=
EXTT7=
EXTT8=
EXTT9=
PLAYORDER=
